# xmcd CD database file
#
# Track frame offsets:
#	150
#	21133
#	38768
#	56432
#	75690
#	92150
#	106949
#	128218
#	143274
#	159853
#	178025
#	193520
#	208296
#	222648
#	240077
#	261949
#	286336
#	301729
#	317472
#
# Disc length: 4430 seconds
#
# Revision: 0
# Processed by: cddbd v1.5.2PL0 Copyright (c) Steve Scherf et al.
# Submitted via: CDex 1.51
#
DISCID=fa114c13
DTITLE=Barney Kessel - Seven Classic Albums CD 2
DYEAR=1900
DGENRE=Jazz
TTITLE0=Carmen' Cool
TTITLE1=Like, There's No Place Like
TTITLE2=The Gypsy's Hip
TTITLE3=Some Like It Hot
TTITLE4=I Wanna Be Loved By You
TTITLE5=Stairway To The Stars
TTITLE6=Sweet Sue
TTITLE7=Runnin' Wild
TTITLE8=Sweet Georgia Brown
TTITLE9=Down Among The Sheltering Palm
TTITLE10=Sugar Blues
TTITLE11=I'm Thru With Love
TTITLE12=By The Beautiful Sea
TTITLE13=Little Susie
TTITLE14=The Duke
TTITLE15=Sq What
TTITLE16=Misty
TTITLE17=Doodlin'
TTITLE18=The Golden Striker
EXTD=
EXTT0=
EXTT1=
EXTT2=
EXTT3=
EXTT4=
EXTT5=
EXTT6=
EXTT7=
EXTT8=
EXTT9=
EXTT10=
EXTT11=
EXTT12=
EXTT13=
EXTT14=
EXTT15=
EXTT16=
EXTT17=
EXTT18=
PLAYORDER=
